<svg width="160" height="52" viewBox="0 0 160 52" fill="none" xmlns="http://www.w3.org/2000/svg">
<path d="M4.85815 13.5615L11.7124 33.759H11.989L18.8432 13.5615H22.8596L13.9972 38.3603H9.70426L0.841797 13.5615H4.85815ZM31.4911 38.7357C29.6713 38.7357 28.1041 38.3442 26.7894 37.5611C25.4826 36.7701 24.4725 35.6601 23.759 34.2312C23.0536 32.7943 22.7008 31.1112 22.7008 29.1819C22.7008 27.2767 23.0536 25.5976 23.759 24.1446C24.4725 22.6915 25.4666 21.5573 26.7412 20.742C28.0239 19.9267 29.523 19.519 31.2386 19.519C32.2808 19.519 33.2909 19.6926 34.2689 20.0397C35.2469 20.3868 36.1247 20.9317 36.9024 21.6744C37.68 22.417 38.2933 23.3818 38.7422 24.5684C39.1912 25.747 39.4156 27.1799 39.4156 28.867V30.1505H24.7331V27.4382H35.8923C35.8923 26.4857 35.6999 25.6421 35.3151 24.9075C34.9302 24.1648 34.3891 23.5795 33.6917 23.1517C33.0023 22.7238 32.1926 22.5099 31.2626 22.5099C30.2526 22.5099 29.3707 22.7602 28.6172 23.2606C27.8716 23.7531 27.2944 24.3989 26.8855 25.1981C26.4847 25.9892 26.2843 26.8489 26.2843 27.7772V29.8963C26.2843 31.1395 26.5007 32.197 26.9336 33.0688C27.3745 33.9406 27.9879 34.6066 28.7735 35.0668C29.5591 35.5188 30.477 35.7448 31.5272 35.7448C32.2086 35.7448 32.8299 35.648 33.3911 35.4542C33.9522 35.2524 34.4373 34.9537 34.8461 34.5582C35.255 34.1626 35.5676 33.6742 35.7841 33.093L39.1871 33.7106C38.9146 34.7196 38.4255 35.6036 37.7201 36.3623C37.0226 37.1131 36.1448 37.6984 35.0866 38.1181C34.0364 38.5299 32.8379 38.7357 31.4911 38.7357ZM46.2554 27.3171V38.3603H42.6599V19.7612H46.1111V22.7885H46.3396C46.7645 21.8036 47.4299 21.0124 48.3357 20.4151C49.2497 19.8177 50.4 19.519 51.7869 19.519C53.0455 19.519 54.1479 19.7854 55.0938 20.3182C56.0398 20.843 56.7733 21.626 57.2944 22.6673C57.8155 23.7087 58.076 24.9962 58.076 26.5301V38.3603H54.4806V26.9659C54.4806 25.6179 54.1318 24.5644 53.4344 23.8055C52.7369 23.0387 51.7789 22.6552 50.5604 22.6552C49.7266 22.6552 48.9851 22.8369 48.3357 23.2001C47.6944 23.5633 47.1853 24.0961 46.8086 24.7985C46.4398 25.4927 46.2554 26.3323 46.2554 27.3171ZM70.775 19.7612V22.6673H60.686V19.7612H70.775ZM63.3916 15.3051H66.9871V32.8993C66.9871 33.6016 67.0914 34.1303 67.2998 34.4855C67.5082 34.8326 67.7767 35.0708 68.1054 35.1999C68.4421 35.3211 68.8069 35.3816 69.1997 35.3816C69.4883 35.3816 69.7408 35.3614 69.9573 35.3211C70.1738 35.2806 70.3421 35.2483 70.4624 35.2241L71.1117 38.215C70.9033 38.2957 70.6066 38.3764 70.2219 38.4572C69.837 38.546 69.3561 38.5944 68.7788 38.6025C67.8329 38.6186 66.9511 38.4492 66.1333 38.0939C65.3156 37.7387 64.6543 37.1898 64.1492 36.4471C63.6442 35.7045 63.3916 34.7721 63.3916 33.65V15.3051Z" fill="black"/>
<path d="M105.759 6.96032L82.7504 13.1685C74.8057 15.3121 70.0909 23.5351 72.2197 31.5351C74.3485 39.5352 82.5146 44.2828 90.4594 42.1391L113.468 35.931C121.413 33.7874 126.128 25.5644 123.999 17.5643C121.87 9.56428 113.704 4.81671 105.759 6.96032Z" fill="#F6C547" stroke="black" stroke-width="2"/>
<path d="M108.885 32.6771C114.532 31.1535 117.883 25.309 116.37 19.6229C114.857 13.9368 109.053 10.5625 103.406 12.086C97.7592 13.6096 94.4082 19.4542 95.9212 25.1403C97.4343 30.8263 103.238 34.2007 108.885 32.6771Z" fill="white" stroke="black" stroke-width="2"/>
<path d="M129.563 38.8914C127.831 38.8914 126.32 38.4918 125.029 37.6926C123.739 36.8935 122.737 35.7755 122.023 34.3385C121.31 32.9016 120.953 31.2226 120.953 29.3013C120.953 27.3719 121.31 25.6847 122.023 24.2398C122.737 22.7948 123.739 21.6727 125.029 20.8735C126.32 20.0744 127.831 19.6748 129.563 19.6748C131.295 19.6748 132.806 20.0744 134.097 20.8735C135.387 21.6727 136.389 22.7948 137.103 24.2398C137.817 25.6847 138.173 27.3719 138.173 29.3013C138.173 31.2226 137.817 32.9016 137.103 34.3385C136.389 35.7755 135.387 36.8935 134.097 37.6926C132.806 38.4918 131.295 38.8914 129.563 38.8914ZM129.575 35.8521C130.697 35.8521 131.627 35.5534 132.365 34.9561C133.102 34.3587 133.647 33.5636 134 32.5706C134.361 31.5777 134.541 30.4839 134.541 29.2892C134.541 28.1025 134.361 27.0127 134 26.0197C133.647 25.0188 133.102 24.2156 132.365 23.6101C131.627 23.0047 130.697 22.702 129.575 22.702C128.444 22.702 127.506 23.0047 126.761 23.6101C126.024 24.2156 125.475 25.0188 125.114 26.0197C124.761 27.0127 124.585 28.1025 124.585 29.2892C124.585 30.4839 124.761 31.5777 125.114 32.5706C125.475 33.5636 126.024 34.3587 126.761 34.9561C127.506 35.5534 128.444 35.8521 129.575 35.8521ZM145.037 27.4728V38.516H141.442V19.9169H144.892V22.9442H145.121C145.546 21.9593 146.211 21.1681 147.117 20.5708C148.031 19.9734 149.182 19.6748 150.568 19.6748C151.827 19.6748 152.929 19.9412 153.875 20.474C154.821 20.9987 155.555 21.7817 156.076 22.823C156.597 23.8644 156.857 25.1519 156.857 26.6858V38.516H153.262V27.1216C153.262 25.7736 152.913 24.7201 152.216 23.9613C151.518 23.1944 150.56 22.8109 149.342 22.8109C148.508 22.8109 147.766 22.9926 147.117 23.3558C146.476 23.7191 145.966 24.2519 145.59 24.9542C145.221 25.6484 145.037 26.488 145.037 27.4728Z" fill="black"/>
</svg>
